<?xml version="1.0" standalone="no"?>
<!DOCTYPE svg PUBLIC "-//W3C//DTD SVG 20010904//EN"
 "http://www.w3.org/TR/2001/REC-SVG-20010904/DTD/svg10.dtd">
<svg version="1.0" xmlns="http://www.w3.org/2000/svg"
 width="260.000000pt" height="260.000000pt" viewBox="0 0 260.000000 260.000000"
 preserveAspectRatio="xMidYMid meet">
<metadata>
Created by potrace 1.11, written by Peter Selinger 2001-2013
</metadata>
<g transform="translate(0.000000,260.000000) scale(0.100000,-0.100000)"
fill="#000000" stroke="none">
<path d="M763 2271 c-95 -24 -139 -84 -153 -213 -13 -108 -13 -1398 0 -1506
12 -106 39 -158 100 -192 l45 -25 392 -3 c463 -4 527 3 661 69 180 88 271 245
272 465 0 105 -14 174 -49 249 -50 109 -133 179 -259 221 l-64 22 64 31 c95
45 151 99 195 189 l38 76 0 145 c0 143 -1 147 -32 213 -56 118 -160 200 -309
244 -51 15 -115 18 -464 20 -223 1 -419 -1 -437 -5z m829 -219 c61 -21 121
-72 151 -132 27 -52 28 -61 25 -155 -3 -88 -7 -106 -33 -155 -17 -30 -49 -69
-73 -87 -78 -59 -108 -63 -484 -63 l-338 0 0 285 c0 274 1 286 20 305 20 20
29 21 358 17 233 -2 349 -7 374 -15z m24 -826 c80 -28 144 -82 179 -150 26
-53 30 -71 33 -165 3 -91 1 -115 -18 -165 -26 -69 -77 -129 -134 -158 -85 -44
-124 -48 -468 -48 -315 0 -329 1 -348 20 -19 19 -20 33 -20 356 l0 335 363 -3
c319 -3 368 -6 413 -22z"/>
</g>
</svg>
